HIERARCHY
ROOT Hips
{
	OFFSET 0.00000 0.00000 0.00000
	CHANNELS 6 Xposition Yposition Zposition Zrotation Yrotation Xrotation 
	JOINT LHipJoint
	{
		OFFSET 0 0 0
		CHANNELS 3 Zrotation Yrotation Xrotation
		JOINT LeftHip
		{
			OFFSET 1.38691 -1.89057 0.78360
			CHANNELS 3 Zrotation Yrotation Xrotation
			JOINT LeftKnee
			{
				OFFSET 2.59731 -7.13606 0.00000
				CHANNELS 3 Zrotation Yrotation Xrotation
				JOINT LeftAnkle
				{
					OFFSET 2.70078 -7.42033 0.00000
					CHANNELS 3 Zrotation Yrotation Xrotation
					JOINT LeftToe
					{
						OFFSET 0.16751 -0.46024 2.68862
						CHANNELS 3 Zrotation Yrotation Xrotation
						End Site
						{
							OFFSET 0.00000 -0.00000 1.37057
						}
					}
				}
			}
		}
	}
	JOINT RHipJoint
	{
		OFFSET 0 0 0
		CHANNELS 3 Zrotation Yrotation Xrotation
		JOINT RightHip
		{
			OFFSET -1.38190 -1.89056 0.78359
			CHANNELS 3 Zrotation Yrotation Xrotation
			JOINT RightKnee
			{
				OFFSET -2.57785 -7.08258 0.00000
				CHANNELS 3 Zrotation Yrotation Xrotation
				JOINT RightAnkle
				{
					OFFSET -2.77908 -7.63547 0.00000
					CHANNELS 3 Zrotation Yrotation Xrotation
					JOINT RightToe
					{
						OFFSET -0.17921 -0.49237 2.62360
						CHANNELS 3 Zrotation Yrotation Xrotation
						End Site
						{
							OFFSET -0.00000 -0.00000 1.34085
						}
					}
				}
			}
		}
	}
	JOINT lowerback
	{
		OFFSET 0 0 0
		CHANNELS 3 Zrotation Yrotation Xrotation
		JOINT Chest
		{
			OFFSET -0.10749 2.04110 -0.22549
			CHANNELS 3 Zrotation Yrotation Xrotation
			JOINT Chest2
			{
				OFFSET 0.01213 2.05840 0.00691
				CHANNELS 3 Zrotation Yrotation Xrotation
				JOINT lowerneck
				{
					OFFSET 0 0 0
					CHANNELS 3 Zrotation Yrotation Xrotation
					JOINT Neck
					{
						OFFSET 0.06585 1.81215 0.35449
						CHANNELS 3 Zrotation Yrotation Xrotation
						JOINT Head
						{
							OFFSET -0.04315 1.87555 -0.27307
							CHANNELS 3 Zrotation Yrotation Xrotation
							End Site
							{
								OFFSET -0.01775 1.89740 -0.13294
							}
						}
					}
				}
				JOINT LeftCollar
				{
					OFFSET 0 0 0
					CHANNELS 3 Zrotation Yrotation Xrotation
					JOINT LeftShoulder
					{
						OFFSET 2.98012 1.63606 0.28888
CHANNELS 3 Zrotation Xrotation Yrotation
						JOINT LeftElbow
						{
OFFSET 0 -5.598640 -0.000000
CHANNELS 3 Zrotation Xrotation Yrotation
							JOINT LeftWrist
							{
OFFSET 0 -3.595420 -0.000000
CHANNELS 3 Zrotation Xrotation Yrotation
								JOINT lhand
								{
									OFFSET 0 0 0
CHANNELS 3 Zrotation Xrotation Yrotation
									JOINT LFingers
									{
OFFSET 0 -0.572010 -0.000000
CHANNELS 3 Zrotation Xrotation Yrotation
										End Site
										{
OFFSET 0 -0.461170 -0.000000
										}
									}
								}
								JOINT LThumb
								{
OFFSET 0 0.000000 0.000000
CHANNELS 3 Zrotation Xrotation Yrotation
									End Site
									{
OFFSET 0 -0.468210 0.468210
									}
								}
							}
						}
					}
				}
				JOINT RightCollar
				{
					OFFSET 0 0 0
					CHANNELS 3 Zrotation Yrotation Xrotation
					JOINT RightShoulder
					{
						OFFSET -3.08694 1.53706 0.36335
CHANNELS 3 Zrotation Xrotation Yrotation
						JOINT RightElbow
						{
OFFSET 0 -5.809400 -0.000000
CHANNELS 3 Zrotation Xrotation Yrotation
							JOINT RightWrist
							{
OFFSET 0 -3.669530 -0.000000
CHANNELS 3 Zrotation Xrotation Yrotation
								JOINT rhand
								{
									OFFSET 0 0 0
CHANNELS 3 Zrotation Xrotation Yrotation
									JOINT RFingers
									{
OFFSET 0 -0.578430 -0.000000
CHANNELS 3 Zrotation Xrotation Yrotation
										End Site
										{
OFFSET 0 -0.466350 -0.000000
										}
									}
								}
								JOINT RThumb
								{
OFFSET 0 0.000000 0.000000
CHANNELS 3 Zrotation Xrotation Yrotation
									End Site
									{
OFFSET 0 -0.473470 0.473470
									}
								}
							}
						}
					}
				}
			}
		}
	}
}
MOTION
Frames: 5
Frame Time: 0.008333333333333333
-14.118800 19.011200 -43.169900 6.482100 72.148200 7.679200 0.000000 0.000000 0.000000 -14.698100 -5.987300 -4.402000 3.434200 11.366700 33.526900 2.612500 -28.364000 -33.050100 0.596300 4.943700 13.748000 0.000000 0.000000 0.000000 17.092400 -6.705500 -27.199800 -7.651700 -15.857000 51.298300 -4.962100 13.049200 -40.659500 -1.128900 6.748600 -18.972700 -0.135700 -3.217700 13.365300 1.277300 -4.172200 -0.331900 2.255700 -1.982200 -7.745300 -2.161600 -6.980800 -17.329300 1.999100 -9.896500 38.898400 -0.556700 -3.731800 17.422500 -0.000000 -0.000000 0.000000 0.545200 -5.626800 -78.848200 50.389200 -53.151300 26.485300 26.045100 -26.009600 -19.390000 0.000000 0.000000 0.000000 -7.125000 0.000000 0.000000 -2.294300 51.357900 0.359500 -0.000000 -0.000000 0.000000 -16.753200 3.537600 31.629700 -23.985900 -35.149300 -7.698400 -38.209600 -14.213600 2.023200 0.000000 0.000000 0.000000 7.125000 0.000000 -0.000000 -9.379600 32.456500 -2.914700
-14.109755 19.032858 -43.011259 6.151251 72.402769 7.370260 0.000000 0.000000 0.000000 -14.716994 -6.223276 -4.061805 3.344553 11.231727 33.066857 2.775110 -28.037071 -33.638331 0.548110 4.738377 13.164643 0.000000 0.000000 0.000000 17.158580 -6.157067 -26.722823 -7.524717 -15.757454 50.830770 -5.070892 12.913976 -41.129291 -1.063022 6.551719 -18.395122 -0.084193 -3.217097 13.286256 1.288405 -4.163557 -0.361296 2.233037 -1.980240 -7.735401 -2.239136 -7.063512 -17.236789 2.108194 -10.034990 38.786090 -0.517304 -3.789638 17.357225 0.000000 0.000000 0.000000 0.752935 -5.403236 -78.988399 49.932022 -52.966429 26.120331 25.749527 -26.129296 -19.225530 0.000000 0.000000 0.000000 -7.125000 0.000000 0.000000 -2.553542 51.128306 0.384324 0.000000 0.000000 0.000000 -16.608680 3.663327 31.510054 -23.984443 -35.147792 -7.697596 -38.095783 -14.189982 2.008125 0.000000 0.000000 0.000000 7.125000 0.000000 0.000000 -9.286385 32.435596 -2.889776
-14.100708 19.054469 -42.852647 5.823883 72.657199 7.064686 0.000000 0.000000 0.000000 -14.737171 -6.459451 -3.721971 3.255083 11.096983 32.607636 2.940539 -27.698067 -34.235198 0.498750 4.525727 12.560840 0.000000 0.000000 0.000000 17.223539 -5.608835 -26.245956 -7.397882 -15.657994 50.363732 -5.179819 12.779809 -41.599568 -0.997298 6.355203 -17.818649 -0.033883 -3.216924 13.207146 1.299088 -4.155715 -0.390944 2.210756 -1.978633 -7.725652 -2.315798 -7.145593 -17.143122 2.216964 -10.172660 38.673601 -0.477982 -3.847101 17.291445 0.000000 0.000000 0.000000 0.961129 -5.178811 -79.126824 49.475004 -52.781558 25.755508 25.454264 -26.248562 -19.061026 0.000000 0.000000 0.000000 -7.125000 0.000000 0.000000 -2.812441 50.898747 0.409046 0.000000 0.000000 0.000000 -16.463520 3.788868 31.390492 -23.982779 -35.146066 -7.696673 -37.981050 -14.168475 1.991504 0.000000 0.000000 0.000000 7.125000 0.000000 0.000000 -9.192276 32.412750 -2.864982
-14.091513 19.071454 -42.696871 5.842224 72.897949 7.093430 0.000000 0.000000 0.000000 -14.884756 -6.715427 -3.418107 3.183124 10.984925 32.229954 3.385908 -26.159650 -35.689847 0.333225 3.585341 9.926110 0.000000 0.000000 0.000000 17.167259 -5.080603 -25.779984 -7.285672 -15.567091 49.945497 -5.302078 12.750614 -42.118102 -0.946896 6.195005 -17.352024 -0.102374 -3.259486 13.121418 1.267782 -4.227473 -0.445567 2.226434 -2.011999 -7.730878 -2.305547 -7.164939 -16.934582 2.293596 -10.228891 38.543302 -0.446124 -3.867302 17.175517 0.000000 0.000000 0.000000 1.214843 -4.868866 -79.089137 49.033956 -52.596788 25.405112 25.189745 -26.325043 -18.893089 0.000000 0.000000 0.000000 -7.125000 0.000000 0.000000 -3.037261 50.672670 0.423669 0.000000 0.000000 0.000000 -16.254779 3.896002 31.279287 -23.960619 -35.122599 -7.683909 -37.775324 -14.356613 1.821306 0.000000 0.000000 0.000000 7.125000 0.000000 0.000000 -9.009315 32.197025 -2.853173
-14.082322 19.088341 -42.541083 5.856906 73.136725 7.120217 0.000000 0.000000 0.000000 -15.032814 -6.975248 -3.115162 3.111236 10.872912 31.852496 3.820434 -24.664755 -37.110530 0.173103 2.676723 7.380270 0.000000 0.000000 0.000000 17.112497 -4.552012 -25.315590 -7.173457 -15.476129 49.527149 -5.424314 12.723913 -42.636308 -0.896669 6.035207 -16.886613 -0.170433 -3.300647 13.033869 1.237139 -4.297253 -0.500071 2.242060 -2.044430 -7.734989 -2.297079 -7.185423 -16.727490 2.370998 -10.286572 38.413321 -0.413987 -3.888193 17.060421 0.000000 0.000000 0.000000 1.468189 -4.560674 -79.054439 48.592561 -52.411735 25.054477 24.926310 -26.403047 -18.725301 0.000000 0.000000 0.000000 -7.125000 0.000000 0.000000 -3.261005 50.446965 0.438093 0.000000 0.000000 0.000000 -16.046190 4.002716 31.166697 -23.937409 -35.098015 -7.670544 -37.552338 -14.534851 1.657814 0.000000 0.000000 0.000000 7.125000 0.000000 0.000000 -8.813139 31.989359 -2.835439
